<?xml version="1.0" encoding="UTF-8" standalone="no"?>
<svg
   height="128px"
   viewBox="0 0 128 128"
   width="128px"
   version="1.1"
   id="svg31"
   sodipodi:docname="ca.vlacroix.Tally.svg"
   inkscape:version="1.3.2 (091e20ef0f, 2023-11-25)"
   xmlns:inkscape="http://www.inkscape.org/namespaces/inkscape"
   xmlns:sodipodi="http://sodipodi.sourceforge.net/DTD/sodipodi-0.dtd"
   xmlns="http://www.w3.org/2000/svg"
   xmlns:svg="http://www.w3.org/2000/svg">
  <defs
     id="defs31" />
  <sodipodi:namedview
     id="namedview31"
     pagecolor="#ffffff"
     bordercolor="#000000"
     borderopacity="0.25"
     inkscape:showpageshadow="2"
     inkscape:pageopacity="0.0"
     inkscape:pagecheckerboard="0"
     inkscape:deskcolor="#d1d1d1"
     inkscape:zoom="4.25"
     inkscape:cx="63.882353"
     inkscape:cy="64"
     inkscape:window-width="1281"
     inkscape:window-height="788"
     inkscape:window-x="0"
     inkscape:window-y="0"
     inkscape:window-maximized="1"
     inkscape:current-layer="g33" />
  <linearGradient
     id="a"
     gradientUnits="userSpaceOnUse"
     x1="8.0000155"
     x2="120.0000155"
     y1="115.999977"
     y2="115.999977">
    <stop
       offset="0"
       stop-color="#a51d2d"
       id="stop1" />
    <stop
       offset="0.0357143"
       stop-color="#e01b24"
       id="stop2" />
    <stop
       offset="0.0713653"
       stop-color="#c01c28"
       id="stop3" />
    <stop
       offset="0.928571"
       stop-color="#c01c28"
       id="stop4" />
    <stop
       offset="0.964286"
       stop-color="#e01b24"
       id="stop5" />
    <stop
       offset="1"
       stop-color="#a51d2d"
       id="stop6" />
  </linearGradient>
  <path
     d="m 16 40 h 96 c 4.417969 0 8 3.582031 8 8 v 60 c 0 4.417969 -3.582031 8 -8 8 h -96 c -4.417969 0 -8 -3.582031 -8 -8 v -60 c 0 -4.417969 3.582031 -8 8 -8 z m 0 0"
     fill="url(#a)"
     id="path6" />
  <path
     d="m 16 28 h 96 c 4.417969 0 8 3.582031 8 8 v 68 c 0 4.417969 -3.582031 8 -8 8 h -96 c -4.417969 0 -8 -3.582031 -8 -8 v -68 c 0 -4.417969 3.582031 -8 8 -8 z m 0 0"
     fill="#ed333b"
     id="path7" />
  <path
     d="m 17.847656 34 h 92.304688 c 2.125 0 3.847656 1.414062 3.847656 3.15625 v 53.6875 c 0 1.742188 -1.722656 3.15625 -3.847656 3.15625 h -92.304688 c -2.125 0 -3.847656 -1.414062 -3.847656 -3.15625 v -53.6875 c 0 -1.742188 1.722656 -3.15625 3.847656 -3.15625 z m 0 0"
     fill="#ffbe6f"
     id="path8" />
  <g
     id="g31"
     style="fill:#eeae2c;fill-opacity:1">
    <path
       d="m 20 81 v -14 l 2 -2 l 2 2 v 14 l -2 2 z m 0 0"
       id="path15"
       style="fill:#eeae2c;fill-opacity:1" />
    <path
       d="m 25 42 h 14 l 2 2 l -2 2 h -14 l -2 -2 z m 0 0"
       id="path9"
       style="fill:#eeae2c;fill-opacity:1" />
    <path
       d="m 25 62 h 14 l 2 2 l -2 2 h -14 l -2 -2 z m 0 0"
       fill="#e5a50a"
       id="path10"
       style="fill:#eeae2c;fill-opacity:1" />
    <path
       d="m 25 82 h 14 l 2 2 l -2 2 h -14 l -2 -2 z m 0 0"
       id="path11"
       style="fill:#eeae2c;fill-opacity:1" />
    <path
       d="m 20 61 v -14 l 2 -2 l 2 2 v 14 l -2 2 z m 0 0"
       id="path12"
       style="fill:#eeae2c;fill-opacity:1" />
    <path
       d="m 40 61 v -14 l 2 -2 l 2 2 v 14 l -2 2 z m 0 0"
       id="path13"
       style="fill:#eeae2c;fill-opacity:1" />
    <path
       d="m 40 81 v -14 l 2 -2 l 2 2 v 14 l -2 2 z m 0 0"
       id="path14"
       style="fill:#eeae2c;fill-opacity:1" />
  </g>
  <g
     id="g32">
    <path
       d="m 57,42 h 14 l 2,2 -2,2 H 57 l -2,-2 z m 0,0"
       id="path16"
       style="fill:#000000;fill-opacity:1" />
    <path
       d="m 57,62 h 14 l 2,2 -2,2 H 57 l -2,-2 z m 0,0"
       id="path17"
       style="fill:#e5a50a" />
    <path
       d="m 57,82 h 14 l 2,2 -2,2 H 57 l -2,-2 z m 0,0"
       id="path18"
       style="fill:#000000;fill-opacity:1" />
    <path
       d="M 52,61 V 47 l 2,-2 2,2 v 14 l -2,2 z m 0,0"
       id="path19"
       style="fill:#000000;fill-opacity:1" />
    <path
       d="m 72 81 v -14 l 2 -2 l 2 2 v 14 l -2 2 z m 0 0"
       id="path21" />
    <path
       d="m 52 81 v -14 l 2 -2 l 2 2 v 14 l -2 2 z m 0 0"
       fill="#e5a50a"
       id="path22"
       style="fill:#000000;fill-opacity:1" />
    <path
       d="m 72 61 v -14 l 2 -2 l 2 2 v 14 l -2 2 z m 0 0"
       id="path20" />
  </g>
  <g
     id="g33">
    <path
       d="m 84 81 v -14 l 2 -2 l 2 2 v 14 l -2 2 z m 0 0"
       id="path29" />
    <path
       d="m 89 42 h 14 l 2 2 l -2 2 h -14 l -2 -2 z m 0 0"
       id="path23" />
    <path
       d="m 89 62 h 14 l 2 2 l -2 2 h -14 l -2 -2 z m 0 0"
       id="path24" />
    <path
       d="m 89 82 h 14 l 2 2 l -2 2 h -14 l -2 -2 z m 0 0"
       fill="#e5a50a"
       id="path25"
       style="fill:#000000;fill-opacity:1" />
    <path
       d="m 84 61 v -14 l 2 -2 l 2 2 v 14 l -2 2 z m 0 0"
       id="path26"
       style="fill:#eeae2c;fill-opacity:1" />
    <path
       d="m 104 61 v -14 l 2 -2 l 2 2 v 14 l -2 2 z m 0 0"
       id="path27" />
    <path
       d="m 104 81 v -14 l 2 -2 l 2 2 v 14 l -2 2 z m 0 0"
       id="path28"
       style="fill:#eeae2c;fill-opacity:1" />
  </g>
  <path
     d="m 50 84 c 0 1.105469 -0.894531 2 -2 2 s -2 -0.894531 -2 -2 s 0.894531 -2 2 -2 s 2 0.894531 2 2 z m 0 0"
     id="path30"
     style="fill:#eeae2c;fill-opacity:1" />
  <path
     d="m 82 84 c 0 1.105469 -0.894531 2 -2 2 s -2 -0.894531 -2 -2 s 0.894531 -2 2 -2 s 2 0.894531 2 2 z m 0 0"
     fill="#e5a50a"
     id="path31"
     style="fill:#000000;fill-opacity:1" />
</svg>
