<?xml version="1.0" encoding="UTF-8" standalone="no"?>
<svg
   height="128px"
   viewBox="0 0 128 128"
   width="128px"
   version="1.1"
   id="svg67"
   sodipodi:docname="ca.vlacroix.Tally.Devel.svg"
   inkscape:version="1.3.2 (091e20ef0f, 2023-11-25)"
   xmlns:inkscape="http://www.inkscape.org/namespaces/inkscape"
   xmlns:sodipodi="http://sodipodi.sourceforge.net/DTD/sodipodi-0.dtd"
   xmlns="http://www.w3.org/2000/svg"
   xmlns:svg="http://www.w3.org/2000/svg">
  <defs
     id="defs67" />
  <sodipodi:namedview
     id="namedview67"
     pagecolor="#ffffff"
     bordercolor="#000000"
     borderopacity="0.25"
     inkscape:showpageshadow="2"
     inkscape:pageopacity="0.0"
     inkscape:pagecheckerboard="0"
     inkscape:deskcolor="#d1d1d1"
     inkscape:zoom="4.25"
     inkscape:cx="64.117647"
     inkscape:cy="64"
     inkscape:window-width="1281"
     inkscape:window-height="788"
     inkscape:window-x="0"
     inkscape:window-y="0"
     inkscape:window-maximized="1"
     inkscape:current-layer="g50" />
  <filter
     id="a"
     height="1"
     width="1"
     x="0"
     y="0">
    <feColorMatrix
       color-interpolation-filters="sRGB"
       values="0 0 0 0 1 0 0 0 0 1 0 0 0 0 1 0 0 0 1 0"
       id="feColorMatrix1" />
  </filter>
  <linearGradient
     id="b"
     gradientUnits="userSpaceOnUse"
     x1="8.0000155"
     x2="120.0000155"
     y1="115.999977"
     y2="115.999977">
    <stop
       offset="0"
       stop-color="#a51d2d"
       id="stop1" />
    <stop
       offset="0.0357143"
       stop-color="#e01b24"
       id="stop2" />
    <stop
       offset="0.0713653"
       stop-color="#c01c28"
       id="stop3" />
    <stop
       offset="0.928571"
       stop-color="#c01c28"
       id="stop4" />
    <stop
       offset="0.964286"
       stop-color="#e01b24"
       id="stop5" />
    <stop
       offset="1"
       stop-color="#a51d2d"
       id="stop6" />
  </linearGradient>
  <clipPath
     id="c">
    <rect
       height="128"
       width="128"
       id="rect6" />
  </clipPath>
  <clipPath
     id="d">
    <rect
       height="128"
       width="128"
       id="rect7" />
  </clipPath>
  <mask
     id="e">
    <g
       filter="url(#a)"
       id="g34">
      <g
         clip-path="url(#d)"
         filter="url(#a)"
         id="g33">
        <g
           clip-path="url(#c)"
           id="g32">
          <path
             d="m 16 40 h 96 c 4.417969 0 8 3.582031 8 8 v 60 c 0 4.417969 -3.582031 8 -8 8 h -96 c -4.417969 0 -8 -3.582031 -8 -8 v -60 c 0 -4.417969 3.582031 -8 8 -8 z m 0 0"
             fill="url(#b)"
             id="path7" />
          <path
             d="m 16 28 h 96 c 4.417969 0 8 3.582031 8 8 v 68 c 0 4.417969 -3.582031 8 -8 8 h -96 c -4.417969 0 -8 -3.582031 -8 -8 v -68 c 0 -4.417969 3.582031 -8 8 -8 z m 0 0"
             fill="#ed333b"
             id="path8" />
          <path
             d="m 17.847656 34 h 92.304688 c 2.125 0 3.847656 1.414062 3.847656 3.15625 v 53.6875 c 0 1.742188 -1.722656 3.15625 -3.847656 3.15625 h -92.304688 c -2.125 0 -3.847656 -1.414062 -3.847656 -3.15625 v -53.6875 c 0 -1.742188 1.722656 -3.15625 3.847656 -3.15625 z m 0 0"
             fill="#ffbe6f"
             id="path9" />
          <path
             d="m 25 42 h 14 l 2 2 l -2 2 h -14 l -2 -2 z m 0 0"
             id="path10" />
          <path
             d="m 25 62 h 14 l 2 2 l -2 2 h -14 l -2 -2 z m 0 0"
             fill="#e5a50a"
             id="path11" />
          <path
             d="m 25 82 h 14 l 2 2 l -2 2 h -14 l -2 -2 z m 0 0"
             id="path12" />
          <path
             d="m 20 61 v -14 l 2 -2 l 2 2 v 14 l -2 2 z m 0 0"
             id="path13" />
          <path
             d="m 40 61 v -14 l 2 -2 l 2 2 v 14 l -2 2 z m 0 0"
             id="path14" />
          <path
             d="m 40 81 v -14 l 2 -2 l 2 2 v 14 l -2 2 z m 0 0"
             id="path15" />
          <path
             d="m 20 81 v -14 l 2 -2 l 2 2 v 14 l -2 2 z m 0 0"
             id="path16" />
          <path
             d="m 57 42 h 14 l 2 2 l -2 2 h -14 l -2 -2 z m 0 0"
             fill="#e5a50a"
             id="path17" />
          <path
             d="m 57 62 h 14 l 2 2 l -2 2 h -14 l -2 -2 z m 0 0"
             fill="#e5a50a"
             id="path18" />
          <path
             d="m 57 82 h 14 l 2 2 l -2 2 h -14 l -2 -2 z m 0 0"
             fill="#e5a50a"
             id="path19" />
          <path
             d="m 52 61 v -14 l 2 -2 l 2 2 v 14 l -2 2 z m 0 0"
             fill="#e5a50a"
             id="path20" />
          <path
             d="m 72 61 v -14 l 2 -2 l 2 2 v 14 l -2 2 z m 0 0"
             id="path21" />
          <path
             d="m 72 81 v -14 l 2 -2 l 2 2 v 14 l -2 2 z m 0 0"
             id="path22" />
          <path
             d="m 52 81 v -14 l 2 -2 l 2 2 v 14 l -2 2 z m 0 0"
             fill="#e5a50a"
             id="path23" />
          <path
             d="m 89 42 h 14 l 2 2 l -2 2 h -14 l -2 -2 z m 0 0"
             id="path24" />
          <path
             d="m 89 62 h 14 l 2 2 l -2 2 h -14 l -2 -2 z m 0 0"
             id="path25" />
          <path
             d="m 89 82 h 14 l 2 2 l -2 2 h -14 l -2 -2 z m 0 0"
             fill="#e5a50a"
             id="path26" />
          <path
             d="m 84 61 v -14 l 2 -2 l 2 2 v 14 l -2 2 z m 0 0"
             id="path27" />
          <path
             d="m 104 61 v -14 l 2 -2 l 2 2 v 14 l -2 2 z m 0 0"
             id="path28" />
          <path
             d="m 104 81 v -14 l 2 -2 l 2 2 v 14 l -2 2 z m 0 0"
             id="path29" />
          <path
             d="m 84 81 v -14 l 2 -2 l 2 2 v 14 l -2 2 z m 0 0"
             id="path30" />
          <path
             d="m 50 84 c 0 1.105469 -0.894531 2 -2 2 s -2 -0.894531 -2 -2 s 0.894531 -2 2 -2 s 2 0.894531 2 2 z m 0 0"
             id="path31" />
          <path
             d="m 82 84 c 0 1.105469 -0.894531 2 -2 2 s -2 -0.894531 -2 -2 s 0.894531 -2 2 -2 s 2 0.894531 2 2 z m 0 0"
             fill="#e5a50a"
             id="path32" />
        </g>
      </g>
    </g>
  </mask>
  <mask
     id="f">
    <g
       filter="url(#a)"
       id="g35">
      <rect
         fill-opacity="0.8"
         height="184.32"
         width="184.32"
         x="-28.16"
         y="-28.16"
         id="rect34" />
    </g>
  </mask>
  <linearGradient
     id="g"
     gradientTransform="matrix(0 0.37 -0.98462 0 295.38501 -30.360001)"
     gradientUnits="userSpaceOnUse"
     x1="300"
     x2="428"
     y1="235"
     y2="235">
    <stop
       offset="0"
       stop-color="#f9f06b"
       id="stop35" />
    <stop
       offset="1"
       stop-color="#f5c211"
       id="stop36" />
  </linearGradient>
  <clipPath
     id="h">
    <rect
       height="128"
       width="128"
       id="rect36" />
  </clipPath>
  <clipPath
     id="i">
    <rect
       height="128"
       width="128"
       id="rect37" />
  </clipPath>
  <path
     d="m 16 40 h 96 c 4.417969 0 8 3.582031 8 8 v 60 c 0 4.417969 -3.582031 8 -8 8 h -96 c -4.417969 0 -8 -3.582031 -8 -8 v -60 c 0 -4.417969 3.582031 -8 8 -8 z m 0 0"
     fill="url(#b)"
     id="path37" />
  <path
     d="m 16 28 h 96 c 4.417969 0 8 3.582031 8 8 v 68 c 0 4.417969 -3.582031 8 -8 8 h -96 c -4.417969 0 -8 -3.582031 -8 -8 v -68 c 0 -4.417969 3.582031 -8 8 -8 z m 0 0"
     fill="#ed333b"
     id="path38" />
  <g
     mask="url(#e)"
     id="g67">
    <g
       clip-path="url(#i)"
       id="g66">
      <g
         mask="url(#f)"
         id="g65">
        <g
           clip-path="url(#h)"
           id="g64">
          <path
             d="m 128 80.640625 v 47.359375 h -128 v -47.359375 z m 0 0"
             fill="url(#g)"
             id="path63" />
          <path
             d="m 13.308594 80.640625 l 47.355468 47.359375 h 21.214844 l -47.359375 -47.359375 z m 42.421875 0 l 47.363281 47.359375 h 21.214844 l -47.363282 -47.359375 z m 42.429687 0 l 29.839844 29.839844 v -21.210938 l -8.628906 -8.628906 z m -98.160156 7.90625 v 21.214844 l 18.238281 18.238281 h 21.214844 z m 0 0"
             id="path64" />
        </g>
      </g>
    </g>
  </g>
  <path
     d="m 17.847656 34 h 92.304688 c 2.125 0 3.847656 1.414062 3.847656 3.15625 v 53.6875 c 0 1.742188 -1.722656 3.15625 -3.847656 3.15625 h -92.304688 c -2.125 0 -3.847656 -1.414062 -3.847656 -3.15625 v -53.6875 c 0 -1.742188 1.722656 -3.15625 3.847656 -3.15625 z m 0 0"
     fill="#ffbe6f"
     id="path39"
     style="stroke:#000000;stroke-opacity:1" />
  <g
     id="g1">
    <path
       d="m 20 81 v -14 l 2 -2 l 2 2 v 14 l -2 2 z m 0 0"
       id="path46"
       style="fill:#e5a50a;fill-opacity:1" />
    <path
       d="m 25 42 h 14 l 2 2 l -2 2 h -14 l -2 -2 z m 0 0"
       id="path40"
       style="fill:#e5a50a;fill-opacity:1" />
    <path
       d="m 25 62 h 14 l 2 2 l -2 2 h -14 l -2 -2 z m 0 0"
       fill="#e5a50a"
       id="path41" />
    <path
       d="m 25 82 h 14 l 2 2 l -2 2 h -14 l -2 -2 z m 0 0"
       id="path42"
       style="fill:#e5a50a;fill-opacity:1" />
    <path
       d="m 20 61 v -14 l 2 -2 l 2 2 v 14 l -2 2 z m 0 0"
       id="path43"
       style="fill:#e5a50a;fill-opacity:1" />
    <path
       d="m 40 61 v -14 l 2 -2 l 2 2 v 14 l -2 2 z m 0 0"
       id="path44"
       style="fill:#e5a50a;fill-opacity:1" />
    <path
       d="m 40 81 v -14 l 2 -2 l 2 2 v 14 l -2 2 z m 0 0"
       id="path45"
       style="fill:#e5a50a;fill-opacity:1" />
  </g>
  <g
     fill="#e5a50a"
     id="g50">
    <path
       d="m 57 42 h 14 l 2 2 l -2 2 h -14 l -2 -2 z m 0 0"
       id="path47"
       style="fill:#000000;fill-opacity:1" />
    <path
       d="m 57 62 h 14 l 2 2 l -2 2 h -14 l -2 -2 z m 0 0"
       id="path48" />
    <path
       d="m 57 82 h 14 l 2 2 l -2 2 h -14 l -2 -2 z m 0 0"
       id="path49"
       style="fill:#000000;fill-opacity:1" />
    <path
       d="m 52 61 v -14 l 2 -2 l 2 2 v 14 l -2 2 z m 0 0"
       id="path50"
       style="fill:#000000;fill-opacity:1" />
    <path
       d="m 72 61 v -14 l 2 -2 l 2 2 v 14 l -2 2 z m 0 0"
       id="path51"
       style="fill:#000000;fill-opacity:1" />
    <path
       d="m 72 81 v -14 l 2 -2 l 2 2 v 14 l -2 2 z m 0 0"
       id="path52"
       style="fill:#000000;fill-opacity:1" />
    <path
       d="m 52 81 v -14 l 2 -2 l 2 2 v 14 l -2 2 z m 0 0"
       fill="#e5a50a"
       id="path53"
       style="fill:#000000;fill-opacity:1" />
  </g>
  <g
     id="g2">
    <path
       d="m 84 81 v -14 l 2 -2 l 2 2 v 14 l -2 2 z m 0 0"
       id="path60" />
    <path
       d="m 89 42 h 14 l 2 2 l -2 2 h -14 l -2 -2 z m 0 0"
       id="path54" />
    <path
       d="m 89 62 h 14 l 2 2 l -2 2 h -14 l -2 -2 z m 0 0"
       id="path55" />
    <path
       d="m 89 82 h 14 l 2 2 l -2 2 h -14 l -2 -2 z m 0 0"
       fill="#e5a50a"
       id="path56"
       style="fill:#000000;fill-opacity:1" />
    <path
       d="m 84 61 v -14 l 2 -2 l 2 2 v 14 l -2 2 z m 0 0"
       id="path57"
       style="fill:#e5a50a;fill-opacity:1" />
    <path
       d="m 104 61 v -14 l 2 -2 l 2 2 v 14 l -2 2 z m 0 0"
       id="path58" />
    <path
       d="m 104 81 v -14 l 2 -2 l 2 2 v 14 l -2 2 z m 0 0"
       id="path59"
       style="fill:#e5a50a;fill-opacity:1" />
  </g>
  <path
     d="m 50 84 c 0 1.105469 -0.894531 2 -2 2 s -2 -0.894531 -2 -2 s 0.894531 -2 2 -2 s 2 0.894531 2 2 z m 0 0"
     id="path61"
     style="fill:#e5a50a;fill-opacity:1" />
  <path
     d="m 82 84 c 0 1.105469 -0.894531 2 -2 2 s -2 -0.894531 -2 -2 s 0.894531 -2 2 -2 s 2 0.894531 2 2 z m 0 0"
     fill="#e5a50a"
     id="path62"
     style="fill:#000000;fill-opacity:1" />
</svg>
