<?xml version="1.0" encoding="UTF-8"?>
<svg height="16px" viewBox="0 0 16 16" width="16px" xmlns="http://www.w3.org/2000/svg">
    <path d="m 10 5 v 1 h 1 v -1 z m 0 0"/>
    <path d="m 11 8 v -1 h -1 v 1 z m 0 0"/>
    <path d="m 11 5 v 5 h 1 v -5 z m 0 0"/>
    <path d="m 11 10 v -1 h -1 v 1 z m 0 0"/>
    <path d="m 8 9 h -1 v 1 h 2 v -1 z m 0 0"/>
    <path d="m 8 8 h -1 v 1 h 1 z m 0 0"/>
    <path d="m 7 5 v 1 h 2 v -1 z m 0 0"/>
    <path d="m 9 6 h -1 v 1 h 1 z m 0 0"/>
    <path d="m 9 7 h -2 v 1 h 2 z m 0 0"/>
    <path d="m 5 5 v 5 h 1 v -5 z m 0 0"/>
    <path d="m 5 7 v -1 h -1 v 1 z m 0 0"/>
    <path d="m 3 2 c -1.109375 0 -2 0.890625 -2 2 v 8 c 0 1.109375 0.890625 2 2 2 h 10 c 1.109375 0 2 -0.890625 2 -2 v -8 c 0 -1.109375 -0.890625 -2 -2 -2 z m 0.96875 2 h 8.058594 c 0.539062 0 0.972656 0.472656 0.972656 1.054688 v 4.890624 c 0 0.582032 -0.433594 1.054688 -0.972656 1.054688 h -8.058594 c -0.535156 0 -0.96875 -0.472656 -0.96875 -1.054688 v -4.890624 c 0 -0.582032 0.433594 -1.054688 0.96875 -1.054688 z m 0 0"/>
</svg>
